<?xml version="1.0" standalone="no"?>
<!DOCTYPE svg PUBLIC "-//W3C//DTD SVG 20010904//EN"
 "http://www.w3.org/TR/2001/REC-SVG-20010904/DTD/svg10.dtd">
<svg version="1.0" xmlns="http://www.w3.org/2000/svg"
 width="512.000000pt" height="512.000000pt" viewBox="0 0 512.000000 512.000000"
 preserveAspectRatio="xMidYMid meet">
<metadata>
Created by potrace 1.11, written by Peter Selinger 2001-2013
</metadata>
<g transform="translate(0.000000,512.000000) scale(0.100000,-0.100000)"
fill="#000000" stroke="none">
<path d="M2625 4770 c-215 -58 -331 -73 -520 -67 -144 5 -197 11 -345 42 -378
79 -589 54 -739 -90 -73 -70 -119 -163 -130 -265 l-7 -70 223 0 c206 0 223 1
223 18 0 9 9 32 20 50 61 100 196 98 435 -7 163 -73 200 -81 344 -81 132 1
251 17 314 43 38 16 61 54 51 81 -9 25 16 57 60 76 66 30 106 84 106 146 0 19
8 28 33 39 38 16 72 50 86 88 10 25 9 27 -17 27 -15 -1 -76 -14 -137 -30z"/>
<path d="M894 4173 c23 -61 821 -1803 825 -1803 3 0 22 28 41 62 133 232 380
389 651 414 l66 7 302 661 c165 364 301 665 301 669 0 4 -338 7 -751 7 -710 0
-750 -1 -745 -17 4 -10 37 -97 75 -193 l69 -175 362 -3 c339 -2 362 -3 356
-20 -39 -104 -452 -1030 -457 -1025 -3 5 -154 329 -335 720 l-329 713 -219 0
c-204 0 -218 -1 -212 -17z"/>
<path d="M2623 3028 l-80 -173 70 -3 c38 -2 72 -1 75 2 3 3 -11 30 -31 60
l-36 54 64 82 65 83 -22 31 c-12 17 -22 32 -23 34 -1 1 -38 -76 -82 -170z"/>
<path d="M1243 3157 c-13 -17 -19 -35 -14 -41 4 -6 33 -43 65 -83 l57 -71 -38
-61 c-21 -33 -45 -60 -53 -60 -8 -1 -49 8 -90 19 -41 11 -82 20 -91 20 -9 0
-23 -21 -36 -58 l-21 -59 89 -38 c98 -42 95 -37 75 -130 l-13 -60 -44 -6 c-24
-4 -70 -10 -101 -13 l-58 -7 0 -65 c0 -44 4 -64 13 -64 24 0 192 -22 196 -26
2 -2 9 -35 16 -74 l12 -71 -71 -39 c-113 -62 -109 -56 -84 -115 12 -27 22 -51
24 -53 1 -2 39 6 85 17 46 11 92 21 101 23 11 2 30 -18 56 -58 l40 -62 -65
-82 -65 -82 43 -44 43 -43 40 32 c23 18 60 48 83 66 l41 33 51 -40 c28 -22 55
-42 62 -44 7 -2 2 -33 -15 -93 -14 -49 -26 -94 -26 -100 0 -9 80 -55 95 -55 3
0 5 115 5 255 l0 254 -45 46 c-105 105 -163 234 -172 386 -7 116 2 166 42 233
l34 57 -120 241 c-66 133 -120 243 -122 244 -1 1 -12 -12 -24 -29z"/>
<path d="M2810 2875 l-75 -24 89 0 c76 -1 87 1 82 15 -3 9 -6 20 -6 25 0 12
-3 11 -90 -16z"/>
<path d="M3600 2627 c-38 -19 -55 -61 -40 -98 15 -36 37 -49 85 -49 44 0 85
37 85 75 0 33 -50 85 -82 85 -13 0 -34 -6 -48 -13z"/>
<path d="M4250 2523 c-136 -261 -283 -421 -464 -503 -36 -16 -168 -59 -295
-95 -399 -112 -523 -167 -642 -285 -99 -97 -141 -183 -208 -425 -59 -213 -69
-241 -111 -325 -72 -144 -181 -254 -347 -354 -58 -34 -62 -39 -52 -59 7 -12
13 -23 14 -25 5 -6 87 39 146 79 199 135 310 304 389 594 58 211 78 271 117
347 47 91 145 183 250 235 82 42 305 117 524 177 252 69 360 125 484 251 76
75 173 215 250 359 46 85 47 90 30 102 -10 8 -24 14 -29 14 -6 0 -31 -39 -56
-87z"/>
<path d="M3066 2529 c-37 -29 -37 -89 0 -118 37 -29 89 -27 119 4 75 74 -36
180 -119 114z"/>
<path d="M2379 2371 c-33 -33 -35 -50 -14 -90 16 -32 33 -41 75 -41 42 0 59 9
75 41 21 40 19 57 -14 90 -20 20 -39 29 -61 29 -22 0 -41 -9 -61 -29z"/>
<path d="M3620 2265 c-49 -52 -11 -135 61 -135 39 0 89 48 89 85 0 67 -102
102 -150 50z"/>
<path d="M2880 2177 c-65 -33 -64 -108 2 -140 33 -16 40 -16 71 -4 66 28 71
109 8 142 -36 18 -48 19 -81 2z"/>
<path d="M4272 2133 c-21 -8 -44 -63 -38 -89 16 -64 104 -87 151 -39 53 52 14
136 -62 134 -21 0 -44 -3 -51 -6z"/>
<path d="M2017 2070 c-65 -51 -30 -139 56 -140 27 0 45 7 62 25 33 33 32 70
-4 106 -35 35 -77 38 -114 9z"/>
<path d="M2399 1791 c-36 -36 -37 -60 -3 -100 61 -73 180 -8 144 78 -23 56
-95 67 -141 22z"/>
<path d="M4045 1625 c-68 -67 15 -165 110 -129 23 9 48 62 41 90 -16 64 -104
87 -151 39z"/>
<path d="M3589 1627 c-25 -19 -41 -57 -35 -83 16 -64 104 -87 151 -39 53 52
15 135 -62 135 -21 0 -45 -6 -54 -13z"/>
<path d="M1965 1568 c-78 -42 -48 -153 41 -151 80 2 113 87 53 137 -33 28 -62
32 -94 14z"/>
<path d="M3049 1421 c-45 -45 -36 -97 22 -127 56 -29 129 12 129 73 0 36 -51
83 -90 83 -22 0 -41 -9 -61 -29z"/>
<path d="M4153 1235 c-59 -25 -69 -80 -24 -126 20 -20 39 -29 61 -29 22 0 41
9 61 29 46 47 35 101 -26 127 -40 16 -32 17 -72 -1z"/>
<path d="M3493 1028 c-12 -6 -27 -24 -34 -40 -17 -43 -2 -79 43 -101 33 -16
40 -17 72 -3 34 14 56 46 56 82 0 9 -13 29 -29 45 -31 31 -68 37 -108 17z"/>
<path d="M2163 1008 c-29 -33 -33 -50 -17 -86 13 -32 46 -52 85 -52 30 0 79
53 79 85 0 65 -102 102 -147 53z"/>
<path d="M2970 893 c-70 -26 -82 -116 -19 -148 38 -20 72 -19 102 5 51 41 38
117 -24 139 -35 12 -37 12 -59 4z"/>
<path d="M3855 665 c-53 -52 -15 -135 63 -135 68 0 108 60 78 118 -17 34 -33
42 -82 42 -24 0 -43 -8 -59 -25z"/>
<path d="M3315 595 c-74 -74 35 -180 118 -115 33 26 41 63 23 99 -17 33 -34
41 -82 41 -24 0 -43 -8 -59 -25z"/>
<path d="M2774 520 c-28 -11 -54 -48 -54 -77 0 -12 11 -34 24 -50 19 -22 32
-28 66 -28 76 0 115 75 68 129 -25 29 -72 40 -104 26z"/>
</g>
</svg>
