<?xml version="1.0" encoding="UTF-8" standalone="no"?>
<svg
   xmlns:dc="http://purl.org/dc/elements/1.1/"
   xmlns:cc="http://creativecommons.org/ns#"
   xmlns:rdf="http://www.w3.org/1999/02/22-rdf-syntax-ns#"
   xmlns:svg="http://www.w3.org/2000/svg"
   xmlns="http://www.w3.org/2000/svg"
   xmlns:sodipodi="http://sodipodi.sourceforge.net/DTD/sodipodi-0.dtd"
   xmlns:inkscape="http://www.inkscape.org/namespaces/inkscape"
   width="512"
   height="512"
   version="1.1"
   id="svg14"
   sodipodi:docname="technion046195_logo.svg"
   inkscape:version="0.92.4 (5da689c313, 2019-01-14)"
   inkscape:export-filename="/home/omeryair/workspace/teaching/IntroToMLHeb/content/assets/technion046195_logo.svg.png"
   inkscape:export-xdpi="96"
   inkscape:export-ydpi="96">
  <metadata
     id="metadata20">
    <rdf:RDF>
      <cc:Work
         rdf:about="">
        <dc:format>image/svg+xml</dc:format>
        <dc:type
           rdf:resource="http://purl.org/dc/dcmitype/StillImage" />
        <dc:title></dc:title>
      </cc:Work>
    </rdf:RDF>
  </metadata>
  <defs
     id="defs18" />
  <sodipodi:namedview
     pagecolor="#ffffff"
     bordercolor="#666666"
     borderopacity="1"
     objecttolerance="10"
     gridtolerance="10"
     guidetolerance="10"
     inkscape:pageopacity="0"
     inkscape:pageshadow="2"
     inkscape:window-width="1850"
     inkscape:window-height="1052"
     id="namedview16"
     showgrid="false"
     inkscape:pagecheckerboard="true"
     inkscape:zoom="0.62765958"
     inkscape:cx="-468.22652"
     inkscape:cy="-13.222319"
     inkscape:window-x="70"
     inkscape:window-y="0"
     inkscape:window-maximized="1"
     inkscape:current-layer="svg14" />
  <rect
     style="fill:#e0e0e0;fill-opacity:1;stroke-width:7.21387482"
     id="rect24"
     width="512"
     height="512"
     x="0"
     y="0"
     ry="159.74689" />
  <g
     id="g12"
     style="fill:#325a87;fill-opacity:1"
     transform="matrix(7.1989819,0,0,7.1989819,88.22457,31.644069)">
    <title
       id="title7">Layer 1</title>
    <path
       d="M 30.656251,8.5 H 9.617191 l 2.12891,5.4375 h 10.07031 L 15.437501,28.55859 6.152351,8.5 H 1e-6 l 15.32422,33.66016 z m 0,0"
       id="svg_1"
       style="fill:#325a87;fill-opacity:1;fill-rule:nonzero"
       inkscape:connector-curvature="0" />
    <path
       d="m 26.515631,31.50781 c -0.10938,-0.67968 -0.22266,-1.36328 -0.44922,-2.04297 l 2.57422,-1.35546 c -0.22266,-0.56641 -0.44531,-1.13672 -0.66797,-1.70313 l -2.6875,0.79297 C 24.953131,26.63281 24.613291,26.06641 24.167971,25.5 l 1.78907,-2.26953 c -0.33594,-0.44922 -0.33594,-0.5625 -0.67188,-1.01563 l -0.67187,1.47266 -2.57422,5.55078 c 1.00781,1.36328 1.12109,1.70313 1.12109,3.51563 0,3.96484 -2.79687,7.36718 -6.49219,8.04687 l -1.23047,2.83203 -1.33984,-2.83203 c -3.69141,-0.79297 -6.49219,-4.08203 -6.49219,-8.04687 0,-1.8125 0.22266,-2.15235 1.1211,-3.51563 l -2.6875,-5.4375 -0.67188,-1.47265 c -0.22265,0.33984 -0.44531,0.5664 -0.66797,1.01953 l 1.78907,2.26562 c -0.44922,0.57031 -0.78516,1.13281 -1.1211,1.69922 l -2.79687,-0.67969 c -0.22266,0.56641 -0.44532,1.13282 -0.67188,1.69922 l 2.57422,1.13281 c -0.22266,0.67969 -0.33594,1.36329 -0.44531,2.04297 l -2.79688,0.33985 c 0,0.5625 0,1.24609 0,1.8125 L 4.136721,34 c 0.11328,0.67969 0.22266,1.36328 0.33594,2.03906 l -2.46094,1.35938 c 0.22657,0.5664 0.44922,1.02344 0.67188,1.58984 l 2.79687,-0.67969 c 0.33203,0.56641 0.67188,1.13282 1.11719,1.69922 l -1.78906,2.26563 c 0.33594,0.45312 0.78125,0.90625 1.23047,1.24609 l 2.23828,-1.8125 c 0.5625,0.45313 1.00781,0.90625 1.67969,1.2461 l -0.78125,2.72265 c 0.55468,0.22656 1.11718,0.5625 1.67578,0.79297 l 1.45312,-2.49609 c 0.67578,0.22656 1.34375,0.33984 2.01563,0.45312 l 0.22265,2.83203 c 0.5586,0.11328 0.33594,0.11328 0.89453,0.11328 0.5625,0 0.33594,0 0.89454,-0.11328 l 0.22265,-2.83203 c 0.67578,-0.11328 1.34766,-0.22656 2.01563,-0.45312 l 1.45703,2.49609 c 0.55469,-0.23047 1.12109,-0.45703 1.67578,-0.79297 l -0.89453,-2.60937 c 0.5625,-0.33985 1.12109,-0.79297 1.67969,-1.2461 l 2.23437,1.8125 c 0.45313,-0.45312 0.89844,-0.79297 1.23438,-1.24609 l -1.78907,-2.26563 c 0.44532,-0.5664 0.78516,-1.13281 1.11719,-1.69921 l 2.80078,0.67968 c 0.21875,-0.57031 0.44141,-1.02343 0.66797,-1.58984 l -2.46094,-1.35938 c 0.22266,-0.67968 0.33594,-1.35937 0.33594,-2.03906 l 2.90625,-0.33594 c 0,-0.57031 0,-1.25 0,-1.8164 z m 0,0"
       id="svg_2"
       style="fill:#325a87;fill-opacity:1;fill-rule:nonzero"
       inkscape:connector-curvature="0" />
    <path
       d="m 8.277351,4.75781 c 1.5664,0 2.79687,0.45313 4.25,1.13282 1.23047,0.5664 2.35156,1.13281 3.69531,1.13281 1.45313,0.11328 3.91797,0 5.36719,-0.56641 0.67578,-0.22265 1.01172,-0.5664 0.78906,-1.46875 0.33203,-0.79297 1.00391,-0.67969 1.56641,-1.13281 0.44531,-0.33984 0.77734,-1.13672 0.77734,-1.70313 0,-0.5625 0.5625,-0.33984 1.00781,-0.79296 0.33594,-0.22657 0.67578,-0.79297 0.78516,-1.35938 -1.23047,0 -2.90625,0.67969 -4.13672,0.90625 -1.68359,0.33984 -2.91016,0.56641 -4.70312,0.56641 -4.25,0 -6.82422,-1.35938 -10.29297,-1.35938 -4.36328,0 -7.38282,2.37891 -7.38282,6.6875 h 6.15235 c 0.22265,-1.69922 1.5664,-2.04297 2.125,-2.04297"
       id="svg_3"
       style="fill:#325a87;fill-opacity:1;fill-rule:nonzero"
       inkscape:connector-curvature="0" />
  </g>
  <rect
     style="fill:#f9f9f9;fill-opacity:0.81675391;stroke-width:4.01251698"
     id="rect24-0"
     width="303.76273"
     height="266.99432"
     x="164.95071"
     y="227.20094"
     ry="83.303741" />
  <g
     id="g5"
     transform="translate(0,465)">
    <title
       id="title2">background</title>
    <rect
       x="-1"
       y="-1"
       width="33"
       height="49"
       id="canvas_background"
       style="fill:none" />
  </g>
  <path
     style="fill:none;stroke:#000000;stroke-width:6.17895412px;stroke-linecap:butt;stroke-linejoin:miter;stroke-opacity:1"
     d="m 432.44252,251.81985 c -36.2453,75.54324 -62.42304,59.2046 -122.59662,83.49621 -65.58129,26.47467 -18.98447,90.02708 -96.49454,129.30726"
     id="path4812"
     inkscape:connector-curvature="0"
     sodipodi:nodetypes="csc" />
  <ellipse
     style="fill:#d35f5f;fill-opacity:1;stroke-width:6.17895412"
     id="path4814"
     cx="-365.65247"
     cy="-254.13832"
     rx="9.2291584"
     ry="8.6138811"
     transform="rotate(-179.65562)" />
  <ellipse
     style="fill:#d35f5f;fill-opacity:1;stroke-width:6.17895412"
     id="path4814-3"
     cx="-369.95944"
     cy="-288.59384"
     rx="9.2291584"
     ry="8.6138811"
     transform="rotate(-179.65562)" />
  <ellipse
     style="fill:#d35f5f;fill-opacity:1;stroke-width:6.17895412"
     id="path4814-6"
     cx="-245.67346"
     cy="-278.74942"
     rx="9.2291584"
     ry="8.6138811"
     transform="rotate(-179.65562)" />
  <ellipse
     style="fill:#d35f5f;fill-opacity:1;stroke-width:6.17895412"
     id="path4814-7"
     cx="-224.75404"
     cy="-415.34094"
     rx="9.2291584"
     ry="8.6138811"
     transform="rotate(-179.65562)" />
  <ellipse
     style="fill:#d35f5f;fill-opacity:1;stroke-width:6.17895412"
     id="path4814-5"
     cx="-248.13454"
     cy="-336.58548"
     rx="9.2291584"
     ry="8.6138811"
     transform="rotate(-179.65562)" />
  <ellipse
     style="fill:#d35f5f;fill-opacity:1;stroke-width:6.17895412"
     id="path4814-35"
     cx="-293.66507"
     cy="-299.66882"
     rx="9.2291584"
     ry="8.6138811"
     transform="rotate(-179.65562)" />
  <ellipse
     style="fill:#d35f5f;fill-opacity:1;stroke-width:6.17895412"
     id="path4814-62"
     cx="-202.60405"
     cy="-361.19656"
     rx="9.2291584"
     ry="8.6138811"
     transform="rotate(-179.65562)" />
  <ellipse
     style="fill:#3965b7;fill-opacity:1;stroke-width:6.17895412"
     id="path4814-9"
     cx="-313.35391"
     cy="-373.50211"
     rx="9.2291584"
     ry="8.6138811"
     transform="rotate(-179.65562)" />
  <ellipse
     style="fill:#3965b7;fill-opacity:1;stroke-width:6.17895412"
     id="path4814-9-1"
     cx="-366.26776"
     cy="-353.81323"
     rx="9.2291584"
     ry="8.6138811"
     transform="rotate(-179.65562)" />
  <ellipse
     style="fill:#3965b7;fill-opacity:1;stroke-width:6.17895412"
     id="path4814-9-2"
     cx="-302.27893"
     cy="-428.87704"
     rx="9.2291584"
     ry="8.6138811"
     transform="rotate(-179.65562)" />
  <ellipse
     style="fill:#3965b7;fill-opacity:1;stroke-width:6.17895412"
     id="path4814-9-7"
     cx="-433.94827"
     cy="-303.3605"
     rx="9.2291584"
     ry="8.6138811"
     transform="rotate(-179.65562)" />
  <ellipse
     style="fill:#3965b7;fill-opacity:1;stroke-width:6.17895412"
     id="path4814-9-0"
     cx="-413.02884"
     cy="-352.58267"
     rx="9.2291584"
     ry="8.6138811"
     transform="rotate(-179.65562)" />
  <ellipse
     style="fill:#3965b7;fill-opacity:1;stroke-width:6.17895412"
     id="path4814-9-9"
     cx="-356.42337"
     cy="-414.11038"
     rx="9.2291584"
     ry="8.6138811"
     transform="rotate(-179.65562)" />
  <ellipse
     style="fill:#3965b7;fill-opacity:1;stroke-width:6.17895412"
     id="path4814-9-3"
     cx="-394.5705"
     cy="-448.56592"
     rx="9.2291584"
     ry="8.6138811"
     transform="rotate(-179.65562)" />
  <ellipse
     style="fill:#3965b7;fill-opacity:1;stroke-width:6.17895412"
     id="path4814-9-6"
     cx="-283.82065"
     cy="-465.7937"
     rx="9.2291584"
     ry="8.6138811"
     transform="rotate(-179.65562)" />
  <ellipse
     style="fill:#d35f5f;fill-opacity:1;stroke-width:6.17895412"
     id="path4814-35-6"
     cx="-313.85864"
     cy="-263.16916"
     rx="9.2291584"
     ry="8.6138811"
     transform="rotate(-179.65562)" />
  <ellipse
     style="fill:#d35f5f;fill-opacity:1;stroke-width:6.17895412"
     id="path4814-35-2"
     cx="-208.9857"
     cy="-310.00372"
     rx="9.2291584"
     ry="8.6138811"
     transform="rotate(-179.65562)" />
  <ellipse
     style="fill:#3965b7;fill-opacity:1;stroke-width:6.17895412"
     id="path4814-9-9-8"
     cx="-421.3877"
     cy="-393.16928"
     rx="9.2291584"
     ry="8.6138811"
     transform="rotate(-179.65562)" />
  <ellipse
     style="fill:#3965b7;fill-opacity:1;stroke-width:6.17895412"
     id="path4814-9-9-7"
     cx="-340.50839"
     cy="-455.79208"
     rx="9.2291584"
     ry="8.6138811"
     transform="rotate(-179.65562)" />
</svg>
