<svg width="31" height="47" xmlns="http://www.w3.org/2000/svg">
 <g>
  <title>background</title>
  <rect x="-1" y="-1" width="33" height="49" id="canvas_background" fill="none"/>
 </g>

 <g>
  <title>Layer 1</title>
  <path d="m30.656251,8.5l-21.03906,0l2.12891,5.4375l10.07031,0l-6.37891,14.62109l-9.28515,-20.05859l-6.15235,0l15.32422,33.66016l15.33203,-33.66016zm0,0" fill="rgb(100%,100%,100%)" fill-rule="nonzero" id="svg_1"/>
  <path d="m26.515631,31.50781c-0.10938,-0.67968 -0.22266,-1.36328 -0.44922,-2.04297l2.57422,-1.35546c-0.22266,-0.56641 -0.44531,-1.13672 -0.66797,-1.70313l-2.6875,0.79297c-0.33203,-0.56641 -0.67187,-1.13281 -1.11719,-1.69922l1.78907,-2.26953c-0.33594,-0.44922 -0.33594,-0.5625 -0.67188,-1.01563l-0.67187,1.47266l-2.57422,5.55078c1.00781,1.36328 1.12109,1.70313 1.12109,3.51563c0,3.96484 -2.79687,7.36718 -6.49219,8.04687l-1.23047,2.83203l-1.33984,-2.83203c-3.69141,-0.79297 -6.49219,-4.08203 -6.49219,-8.04687c0,-1.8125 0.22266,-2.15235 1.1211,-3.51563l-2.6875,-5.4375l-0.67188,-1.47265c-0.22265,0.33984 -0.44531,0.5664 -0.66797,1.01953l1.78907,2.26562c-0.44922,0.57031 -0.78516,1.13281 -1.1211,1.69922l-2.79687,-0.67969c-0.22266,0.56641 -0.44532,1.13282 -0.67188,1.69922l2.57422,1.13281c-0.22266,0.67969 -0.33594,1.36329 -0.44531,2.04297l-2.79688,0.33985c0,0.5625 0,1.24609 0,1.8125l2.90625,0.33984c0.11328,0.67969 0.22266,1.36328 0.33594,2.03906l-2.46094,1.35938c0.22657,0.5664 0.44922,1.02344 0.67188,1.58984l2.79687,-0.67969c0.33203,0.56641 0.67188,1.13282 1.11719,1.69922l-1.78906,2.26563c0.33594,0.45312 0.78125,0.90625 1.23047,1.24609l2.23828,-1.8125c0.5625,0.45313 1.00781,0.90625 1.67969,1.2461l-0.78125,2.72265c0.55468,0.22656 1.11718,0.5625 1.67578,0.79297l1.45312,-2.49609c0.67578,0.22656 1.34375,0.33984 2.01563,0.45312l0.22265,2.83203c0.5586,0.11328 0.33594,0.11328 0.89453,0.11328c0.5625,0 0.33594,0 0.89454,-0.11328l0.22265,-2.83203c0.67578,-0.11328 1.34766,-0.22656 2.01563,-0.45312l1.45703,2.49609c0.55469,-0.23047 1.12109,-0.45703 1.67578,-0.79297l-0.89453,-2.60937c0.5625,-0.33985 1.12109,-0.79297 1.67969,-1.2461l2.23437,1.8125c0.45313,-0.45312 0.89844,-0.79297 1.23438,-1.24609l-1.78907,-2.26563c0.44532,-0.5664 0.78516,-1.13281 1.11719,-1.69921l2.80078,0.67968c0.21875,-0.57031 0.44141,-1.02343 0.66797,-1.58984l-2.46094,-1.35938c0.22266,-0.67968 0.33594,-1.35937 0.33594,-2.03906l2.90625,-0.33594c0,-0.57031 0,-1.25 0,-1.8164l-3.01953,-0.45313zm0,0" fill="rgb(100%,100%,100%)" fill-rule="nonzero" id="svg_2"/>
  <path d="m8.277351,4.75781c1.5664,0 2.79687,0.45313 4.25,1.13282c1.23047,0.5664 2.35156,1.13281 3.69531,1.13281c1.45313,0.11328 3.91797,0 5.36719,-0.56641c0.67578,-0.22265 1.01172,-0.5664 0.78906,-1.46875c0.33203,-0.79297 1.00391,-0.67969 1.56641,-1.13281c0.44531,-0.33984 0.77734,-1.13672 0.77734,-1.70313c0,-0.5625 0.5625,-0.33984 1.00781,-0.79296c0.33594,-0.22657 0.67578,-0.79297 0.78516,-1.35938c-1.23047,0 -2.90625,0.67969 -4.13672,0.90625c-1.68359,0.33984 -2.91016,0.56641 -4.70312,0.56641c-4.25,0 -6.82422,-1.35938 -10.29297,-1.35938c-4.36328,0 -7.38282,2.37891 -7.38282,6.6875l6.15235,0c0.22265,-1.69922 1.5664,-2.04297 2.125,-2.04297" fill="rgb(100%,100%,100%)" fill-rule="nonzero" id="svg_3"/>
 </g>
</svg>